# xmcd
#
# Track frame offsets:
#	150
#	16155
#	34003
#	49193
#	67996
#	83893
#	101741
#
# Disc length: 1566 seconds
#
# Revision: 0
# Processed by: cddbd v1.5.2PL0 Copyright (c) Steve Scherf et al.
# Submitted via: EasyCDDAExtractor 12.0.1.1
#
DISCID=4f061c07
DTITLE=ZiA - mini album - Atelier
DYEAR=1900
DGENRE=Ballad
TTITLE0=잊으면 안돼
TTITLE1=그녀처럼
TTITLE2=그날 이후부터
TTITLE3=사랑해 줘요
TTITLE4=술 한잔 해요
TTITLE5=그녀처럼 (Inst.)
TTITLE6=술 한잔 해요 (Inst.)
EXTD=
EXTT0=
EXTT1=
EXTT2=
EXTT3=
EXTT4=
EXTT5=
EXTT6=
PLAYORDER=
